<svg xmlns="http://www.w3.org/2000/svg" width="1365.333" height="1365.333" version="1.0" viewBox="0 0 1024 1024"><path d="M484.5 129.4c-1.6.6-4.8 2.1-7 3.4-6.1 3.5-143.5 142.3-146.3 147.8-3.7 7.1-4.6 17.9-2.1 23.4.6 1.4 1.8 3.9 2.5 5.5 2.2 4.5 48.3 50.9 53 53.3 10.7 5.5 22.1 5 31.6-1.4l5-3.4 3.7 2.9c2 1.6 8.9 8.3 15.4 14.9 9.8 9.9 11.6 12.3 11 14-.8 2-20.1 20.8-44.1 42.8-17.9 16.5-40.3 37.5-42.7 40-1.1 1.2-5.4 5.2-9.5 8.9s-11.6 10.7-16.5 15.4c-5 4.7-16.3 15.1-25 23.1-8.8 8-20.7 19-26.5 24.6-5.8 5.5-13.9 13.1-18 16.9-4.1 3.7-12.2 11.4-18 16.9-5.8 5.6-18.1 17.1-27.4 25.6-9.4 8.5-22.6 20.9-29.5 27.5-6.9 6.6-17.3 16.1-23.1 21.2-11.5 10-11.9 10.7-19.7 31.8-2.9 7.9-3.3 10.2-3.3 18.9 0 12.2 1.7 19.3 7.7 31.6 13.4 27.4 46.6 44 75 37.4 11.9-2.7 19-5.4 27-10.2 6.2-3.8 9.4-6.6 15.6-14.2 9-10.8 30.6-35.8 38.1-44 2.8-3.1 7.8-8.7 11.2-12.5 3.3-3.9 9.9-11.2 14.5-16.4 4.6-5.2 12.7-14.4 17.9-20.4 5.2-5.9 12-13.7 15-17.1 17.3-19.7 24.3-27.7 31.4-35.9 4.3-5.1 10.8-12.4 14.5-16.2 7.5-8 11.2-12.1 26.1-29 5.8-6.5 14.9-16.8 20.4-22.9 18.7-21 22.3-25.1 32.2-36.6 12.9-15 27.3-29.6 30.1-30.5 1.9-.5 4.2 1.3 14.5 11.3l12.2 11.9-2.4 5.4c-3.3 7.4-3.3 19.7 0 28.4 2 5.4 4.3 8.1 22.4 26.3 21.5 21.7 25.3 24.5 35.7 26.1 6.5 1.1 16.6-.2 22.4-2.8 5-2.2 13.8-10.9 87.9-86.9 29.1-29.8 54.2-56.1 55.8-58.5 4-6 6.2-13.2 6.2-20.7.1-10.4-3.1-14.9-26.9-38.7-24.8-24.8-26.2-25.6-43-25.7-11.9-.1-13.3.4-20.1 6.7l-3.2 2.9-28.3-28.8c-15.6-15.9-41-41.7-56.4-57.3-15.4-15.7-31.4-31.9-35.6-36.1-10.6-10.4-10.7-10.8-7.2-18.4 2.4-5.3 2.8-7.3 2.8-15.6 0-14.3-1.4-16.6-24.7-40.5-20.9-21.5-22.5-22.8-30.1-25.6-5.8-2.1-17.2-2.4-22.2-.5zm16.2 48.5c9.7 7.7 12.9 13.4 11.7 20.5-.8 4.6-1.2 5.2-50.4 55.1-16.2 16.5-37.2 38.1-46.6 47.9l-17 17.8-10.7-11.6c-7.9-8.5-10.7-12.2-10.7-14.1 0-2 1.7-4.2 6.8-8.8 12.5-11.5 70.5-70.1 97.3-98.5 6.4-6.7 12.3-12.2 13.2-12.2.8 0 3.7 1.7 6.4 3.9zm30.8 75c10.3 9.3 125.5 125.9 125.5 127 0 .7-17.6 19-39.2 40.7l-39.2 39.5-24.4-24.3c-13.4-13.4-42.3-42.6-64.4-65-39.2-40-40-40.8-39.3-43.9.5-2.4 4.8-7.4 14.9-17.8 26-26.8 41-42.5 49.5-51.9 9.5-10.4 9.8-10.5 16.6-4.3zm184.1 135.9c6.9 5 12.4 12 12.6 16.1.5 10.6-.7 12.4-18.3 29.7-7.4 7.1-30.5 30.7-51.4 52.2-21.2 22-39 39.5-40.3 39.9-1.3.3-4.4.3-6.9 0-4-.4-5.4-1.2-10-6-11.2-11.6-10.2-16.4 6.4-32.2 11.7-11.1 64.7-64.1 87.6-87.4 8.1-8.3 15.1-15.1 15.6-15.1.4 0 2.6 1.3 4.7 2.8zm-229 36c7.9 5.1 8.9 6.4 7.3 9.4-.7 1.3-5.3 7-10.3 12.7-5 5.7-12.6 14.4-17 19.5-4.3 5-10.4 12-13.6 15.6-3.1 3.6-9 10.3-13.1 15-7.1 8.2-16.9 19.3-31.1 35.2-3.8 4.2-8.2 9.3-9.9 11.4-1.6 2-3.5 4.2-4.3 4.8-.8.6-3.1 3.1-5.1 5.6-2 2.5-5.6 6.5-7.9 9-2.3 2.5-9.1 10.1-15.1 17-6.1 6.9-13.5 15.2-16.5 18.6-7.2 7.9-16.8 18.7-27.1 30.4-4.5 5.2-11.5 13.1-15.3 17.4-3.9 4.4-9.5 10.7-12.5 14-2.9 3.4-6.8 7.7-8.5 9.6-1.8 1.9-11 12.5-20.6 23.5-22.4 25.6-27.4 30.7-34 34-7 3.6-15.6 4.3-23.2 2.1-4.4-1.3-6.5-2.6-10-6.5-8.2-9.2-10-20.9-4.9-31.8 4.3-9.1 5.7-10.6 26-29.5 22.2-20.7 33.4-31.2 50.2-47.2 19.6-18.8 33.1-31.1 34.3-31.5.6-.2 6.7-5.8 13.6-12.5 6.9-6.6 17.3-16.4 23-21.6 5.7-5.2 15-13.8 20.5-19 25.4-23.9 36.8-34.4 46.5-43 5.8-5.1 12.3-11.1 14.6-13.4 2.3-2.2 10.8-10.2 18.9-17.6 8.2-7.4 19.8-18.3 25.9-24.2 6.1-5.9 11.6-10.8 12.2-10.8.6 0 3.7 1.7 7 3.8zM476.5 698.2c-5.4 2.8-7.4 4.6-9.6 9-1.7 3.4-1.9 6.2-1.9 32v28.3h-15.3c-8.7-.1-17 .4-19.4 1.1-6.2 1.7-11.7 6.5-14.2 12.4-2.1 5-2.2 5.7-1.9 52.3l.3 47.2 2.4 3.9c1.3 2.1 4.5 5.1 7 6.7l4.5 2.9h215c206.5 0 215.3-.1 219.1-1.9 2.3-1 5.3-3.3 6.8-5.2 1.5-1.9 3.1-3.9 3.6-4.4 1.9-2.5 2.2-9.1 2.1-52.2 0-52.4.1-51.3-8.7-57.7-6.4-4.7-10-5.4-27.5-5.3l-14.8.1-.2-27.9c-.3-27.8-.3-28-2.8-32.5-1.4-2.4-4.5-5.8-6.8-7.5l-4.4-3-164.6-.2-164.7-.2-4 2.1zm303.8 53.5c.4 7.5.3 14.1-.1 14.5-.4.4-61.8.8-136.3.8l-135.4.1-.3-14.6-.3-14.5h271.8l.6 13.7zm52.2 59.3c.9 2.8.3 37.3-.7 39.9l-.7 2.1H456.9l.2-22 .2-22h374.6l.6 2z"/></svg>