<svg xmlns="http://www.w3.org/2000/svg" width="1365.333" height="1365.333" version="1.0" viewBox="0 0 1024 1024"><path d="M775.5 174.3c-8.8 2.9-12.9 6.3-33.9 27.2-11.9 11.9-21.6 21.8-21.6 22 0 1 111.9 108 112.3 107.4.2-.2 2.5-3.3 5.2-6.9 2.7-3.6 12.2-13.9 21-23 19.1-19.5 20-21.2 20-36.1 0-9-.2-9.9-3.7-17-3.5-6.8-6.1-9.7-34.6-37.6-36-35.1-37.9-36.4-52.2-37-5.2-.2-10 .2-12.5 1zM696.3 250.3c-5.3 7-162 163.3-241.7 241.1-21.3 20.9-39.9 39.6-41.1 41.7-2 3.1-4 10.1-6.1 21.9-.3 1.4-.9 4.1-1.4 6-1.1 4.3-2.7 12-9 42.5-2.7 13.2-5.8 28-6.9 32.8-3.5 14.7-2.4 22.4 4.1 28.4 2.5 2.4 10.4 6.2 12.8 6.3.8 0 13-2.9 27-6.5 14-3.5 38.3-9.6 53.9-13.5 15.6-3.8 29.7-7.9 31.5-8.9 1.7-1.1 67.8-66.7 146.9-145.8L810 352.5 764.4 308c-25.1-24.5-49.4-48.4-54.2-53.3-4.7-4.8-9.1-8.7-9.6-8.7-.6 0-2.5 2-4.3 4.3z"/><path d="M237.7 259c-24.5 5.1-48.4 20.3-66.1 41.8-10.9 13.5-17.1 26.5-20.7 44-1.9 9.5-1.9 14-1.6 208.7.2 109.4.6 200.8 1.1 203 .4 2.2 1.9 7.7 3.2 12.3 10.8 35.9 37.8 64.3 71.6 75.2 17.6 5.6 3.5 5.3 237.4 5.5 228.2.2 222.5.3 240-4.5 10-2.7 26.4-10.4 34.7-16.4 19.8-14.2 35.4-35.3 42.1-57.1l2.1-7V485.3l-3-4.9c-2.1-3.3-4.8-6-8.5-8.2-4.7-2.8-6.3-3.2-12.5-3.2-11.6 0-21 6.1-24.3 15.9-.9 2.5-1.2 38.3-1.2 136v132.6l-2.3 6.5c-6.8 19.1-21.9 32-44.4 38-7.1 2-12.1 2-219 2-140 0-213.9-.4-218.1-1-20.6-3.4-36.2-16.4-45.4-38l-2.3-5.5-.2-198.5c-.2-187.4-.1-198.9 1.6-205 4.5-16.6 15.2-30.5 28.9-37.8 13.4-7.1-.6-6.6 182.2-7.2 185.1-.6 167 .3 174.7-8.4 6.8-7.7 8.3-18.8 3.9-28.1-2.5-5.3-5-8-10.6-11.4l-3.5-2.1-165.5.1c-156.2.1-166 .2-174.3 1.9z"/></svg>