<svg xmlns="http://www.w3.org/2000/svg" width="1365.333" height="1365.333" version="1.0" viewBox="0 0 1024 1024"><path d="M444.8 117c-15.2 2.4-27.9 7.6-38.2 15.6-14.7 11.6-25.1 32.6-27 54.9-.4 3.8-.9 9.6-1.2 12.7l-.6 5.7-71.2.3-71.2.3-7.6 3.7c-15.3 7.6-27 25-30.8 45.8-.6 3.2-2.4 19.9-3.9 37.2-3.2 33.9-3 37.6 1.2 44 5.2 7.7 12.4 10.1 28.3 9.6l11.3-.3.5 5c.8 7.9 2.5 26.9 3.6 41 .6 7.1 1.5 18.2 2 24.5.5 6.3 1.7 20.3 2.5 31 .9 10.7 2.7 31.9 4 47 5.4 61.3 15.8 190.3 19 235.5.8 12.1 1.7 24.5 2 27.5.3 3 1.4 19.5 2.5 36.6 2.5 39.5 4.2 47.8 13.1 64.3 12.4 23 32.1 38.1 59.2 45.3l8.2 2.2 157 .4c107.9.2 159.2-.1 164-.8 10.3-1.6 25.4-7.1 34.7-12.6 16.1-9.7 31.9-27.6 38.9-44.3 1.6-3.8 3.8-10.6 4.8-15.2 2-8.7 2.4-12.4 4.1-39.9 1.2-19.5 3.5-49.7 5.5-73.5.8-9.4 2.1-25.8 3-36.5 2.1-26.2 4.2-52.8 6-74 .8-9.6 1.9-24 2.5-32 .7-8 2-24.4 3-36.5 1.1-12.1 2.4-29 3-37.5.5-8.5 1.7-22.5 2.5-31s1.9-21.6 2.5-29c.6-7.4 1.7-21.5 2.5-31.3.9-9.8 2-23.3 2.5-30 .5-6.7 1.5-17.5 2.1-24l1.2-11.7H802c14.6 0 20.1-1.5 25.4-6.9 6.1-6.3 6.8-10.6 5-31.9-2.2-26.2-5.2-51.8-7-58.6-4.4-17.4-15.8-32.7-29.2-39.3l-7.6-3.8-71.3-.3c-66.8-.2-71.3-.3-71.3-2-.1-7.6-3.3-31-5-36.7-6.5-20.9-21.2-36.8-42-45.2-13.9-5.6-14.3-5.6-84-5.9-35.5-.1-67.1.2-70.2.6zm132.6 42.1c11.8 2.4 21.8 11.5 25 22.9.9 3.3 1.6 9.5 1.6 14.8v9.2H420v-8c0-21 8.3-34.4 24-38.6 6.2-1.7 125.1-1.9 133.4-.3zm202.7 92.6c6.3 5.7 7.6 9.9 9.4 29.6.8 9.5 1.5 18.4 1.5 19.9v2.8H233.1l.5-5.3c.3-2.8 1.1-12.2 1.9-20.8 1.5-17.4 2.8-21.3 9-26.7l3.6-3.2H776l4.1 3.7zm-32.7 99.6c-.2 2.3-.8 12.1-1.4 21.7-.6 9.6-1.7 25.8-2.5 36s-1.9 25-2.5 33c-2.6 36.4-6.2 83-8.5 110.5-1.4 16.5-3.2 38.3-4 48.5-1.6 20.1-2.7 33.1-5 60-3.1 37.2-9.1 114.1-10 130-.8 12.6-2.3 26.2-3.6 31.9-3.2 14.6-14.5 28.9-28 35.5-14.5 7-3 6.6-170.4 6.6-167.3 0-156.1.4-170.2-6.6-5-2.5-9.2-5.7-13.8-10.4-10.3-10.7-14.7-22.2-15.9-42-.4-5.2-.9-11.3-1.1-13.5-.3-2.2-1-11.2-1.5-20-2.2-35.8-6.3-91.4-10.1-135.5-1.1-12.9-2.6-31.6-3.4-41.5-.8-9.9-2.8-34.2-4.5-54-1.6-19.8-3.2-38.9-3.5-42.5-.8-12-3.5-47.4-5-66.5-2.4-31.1-5.5-76.5-5.5-81.4v-4.6l235.4.3 235.4.2-.4 4.3z"/><path d="M372.2 409.1c-4.4 2.2-8.3 6.5-10.1 11-.9 2.6.8 36.9 4.4 87.4.8 11.5 2.2 32 3 45.5.8 13.5 2 31 2.5 39 .6 8 1.2 17.9 1.5 22 .3 4.1.8 10.2 1 13.5.3 3.3 1 13.9 1.5 23.6.6 9.7 1.7 27.9 2.5 40.5.8 12.6 2.2 34.1 3 47.9 2.6 43.9 2.4 43 8.9 48 7.7 5.9 20.1 5.5 27.3-.8 5.6-4.9 6.5-7.6 6.4-19.9-.1-6.1-.3-11.3-.5-11.7-.2-.3-.7-6-1-12.6-.4-6.6-.9-14.3-1.1-17-.9-11-2.7-38-5-77-3.1-51.8-3.4-56.8-4-63.5-.2-3-.7-9.3-1-14-.4-7.6-3.8-58.3-6.5-98.5-.6-8.3-1.3-20-1.6-26-1.2-22.5-1.9-27.2-4.9-31.5-5.3-7.7-17.2-10.4-26.3-5.9zM501.1 409.2c-2.8 1.4-5.4 3.7-7.2 6.7l-2.9 4.5v178.8c0 197.2-.5 181.5 6.4 187.5 9.3 8.2 24.4 6.3 31.7-3.9l2.4-3.3.3-178.8c.2-195.3.6-181.2-5.2-187.5-5.7-6.4-17.1-8.2-25.5-4zM631.2 409.1c-5.4 2.7-8.8 7.1-10 12.9-.6 2.5-1.3 11-1.6 19-.4 8-1.1 21-1.6 29-1.2 17.6-4.6 69.5-6 91.5-.6 8.8-1.7 26.1-2.5 38.5-.8 12.4-1.9 29.7-2.5 38.5-.5 8.8-1.7 26.3-2.5 39-5.7 87.1-6 91.3-6 96.7 0 12.2 17.7 21.5 30 15.9 5.1-2.3 10.3-8.1 10.9-12.3.3-1.8 1.2-16.1 2.1-31.8 3-52 4.4-76.3 5.4-91 .6-8 1.5-22.4 2.1-32 3.8-61.9 6-96.9 6.5-104.5.3-3.9 1.4-20.3 2.5-36.5s2.5-35.1 3.1-42c1.3-15.2.7-19.5-3.2-24.8-5.8-7.9-17.6-10.6-26.7-6.1z"/></svg>