<svg xmlns="http://www.w3.org/2000/svg" width="333.333" height="333.333" version="1.0" viewBox="0 0 250 250"><path d="M110.6 17.3c-1.8 1.3-1.8 1.9 1.3 13.7 6.5 25.3 6.3 35.9-.9 62-8.3 30.1-8.1 35 2.6 74.8 4.5 16.3 3.2 39.5-3 57.1-2.1 5.7-2 7.8.3 9.1 3.5 1.8 5 .1 7.5-8.4 3.9-12.7 5.7-24.2 5.7-36.1.1-12.1-.3-14.3-6.4-36-3.9-14.1-4.2-15.8-4.2-28 0-11.3.4-14.3 2.9-23 6.8-23.8 7.7-28.6 7.7-40.1.1-20.3-6.4-46.4-11.5-46.4-.1 0-1 .6-2 1.3zM129.5 17.6c-.9.9-1.4 2.2-1.1 2.9 2.1 5.7 4.7 15.8 6.1 24.4 2.7 16.2 1.7 27.7-4.1 48.1l-4.7 16.5-.1 16v16l4.8 16.5c3.8 13.3 4.8 18.6 5.3 27.1.6 12-1.2 25.4-5.2 38.5-2.2 7.2-2.3 8-.8 9.6 3.8 4.3 6.2 1.2 9.7-12.7 3.5-13.7 5-26.4 4.3-36.5-.5-7.9-1.6-12.6-8.3-37.8-2-7.5-2.6-12.2-2.7-20.7-.1-10.1.3-12.4 4.5-28 5.6-20.2 6.8-26.7 6.8-35.3 0-14.4-6-42.2-9.7-45-2.2-1.6-2.8-1.5-4.8.4z"/></svg>