<svg xmlns="http://www.w3.org/2000/svg" width="1365.333" height="1365.333" version="1.0" viewBox="0 0 1024 1024"><path d="M489.5 123c-112.8 7.2-215.5 60-284 146-33.6 42.2-60.5 97.4-73 149.5-1.9 7.7-3.9 16.7-4.4 20-.6 3.3-1.3 7.1-1.6 8.5-.3 1.3-.7 4.2-1 6.5-.4 2.2-.8 5.1-1 6.5-1.9 12.4-2.9 31-2.8 54.5 0 23.1.4 30.9 2.2 44.6 1.2 9.2 2.4 17.7 2.6 19 .3 1.3 1 5.1 1.6 8.4 3.3 18.6 12.3 49.5 20.4 70 6.3 16.1 18.9 41.5 28.6 57.6 27.4 45.7 64.5 85.6 108.8 117.1 30.4 21.7 71 41.8 108.2 53.6 20.6 6.6 54.7 13.9 72.4 15.6 44.4 4.2 75.6 3.3 116.3-3.5 62.8-10.4 126.1-39.6 178.4-82.1 11.9-9.7 39.3-36.4 46.9-45.7 2.4-3 6-7.3 8-9.5 20-22.8 46.1-67.1 59.7-101.6 9.4-23.6 19.5-60 21.8-77.9.3-2.6.7-5.3.9-6.1 1.3-5 3.6-28.5 4.5-46.4.9-17.1.8-24.2-.5-40-1.5-18.4-3.7-36.8-5.5-45.1-.5-2.2-1.1-5.9-1.5-8.2-2.2-15.1-15.2-57.3-23.5-76.3-20.7-47.1-46.2-84.9-80.9-120-30.8-31-63.1-54.8-100-73.4-63-31.7-132-46-201.6-41.6zm73.5 42.9c56.2 8.5 103.2 26.6 147.5 57 20.5 14 33.3 24.7 52 43.5 9.5 9.5 15.2 16 30.1 34.4 4.9 6 22.9 33.7 28.3 43.5 16.8 30.6 29.3 65.6 36 101.2 3 15.3 3.2 16.7 5.2 36.3 1.5 14.3.6 60.5-1.5 75.2-6.2 44.7-15.9 76.8-34.5 113.5-18.5 36.3-36.4 61-65 89.5-9.1 9.1-21.5 20.5-27.6 25.3-62.3 49.9-137.7 76.5-219 77.6-63.2.8-128.6-17.3-184-50.8-48-29.1-89.9-71-118.4-118.5-27.2-45.3-42.1-89.4-48.8-144.6-1-8.3-1-60.7 0-72.5 3-34.8 14.2-76.6 29.6-110.1 43.8-95.3 123.8-163 225.5-190.8 12.8-3.5 20.2-5.3 25.1-6 1.7-.3 8.6-1.5 15.5-2.7 18.9-3.2 28.8-3.8 61-3.4 23.2.3 32.4.8 43 2.4z"/><path d="M700.8 335.9c-3.1 1-6.9 2.8-8.6 4-1.6 1.1-22.9 22.2-47.3 46.8-24.4 24.7-79.5 80-122.4 123l-78 78.3-55.5-55.4c-63.4-63.2-60.8-61.1-76-61.1-7.6 0-9.3.4-15.1 3.2-16.8 8.3-25.1 26.3-20.5 44.3.9 3.6 2.7 8.1 4 10 1.3 1.9 34 35.3 72.7 74.1 52.6 52.8 71.5 71.1 74.9 72.7 10.5 5 19.9 5.1 30.5.2 5.4-2.5 15.3-12 105.5-102.6 173.3-173.9 173-173.6 177.6-182.8 3.8-7.8 3.9-8.3 3.9-18.5 0-10-.2-11-3.4-17.1-8.4-16.4-25.8-24.2-42.3-19.1z"/></svg>